<svg xmlns="http://www.w3.org/2000/svg" xmlns:xlink="http://www.w3.org/1999/xlink" width="200" zoomAndPan="magnify" viewBox="0 0 150 52.499999" height="70" preserveAspectRatio="xMidYMid meet" version="1.0"><defs><g/><clipPath id="2b3b9818f6"><path d="M 0.707031 33 L 6 33 L 6 40.910156 L 0.707031 40.910156 Z M 0.707031 33 " clip-rule="nonzero"/></clipPath><clipPath id="e85f5c5fba"><path d="M 8 31 L 14 31 L 14 40.910156 L 8 40.910156 Z M 8 31 " clip-rule="nonzero"/></clipPath><clipPath id="87e5cca9f8"><path d="M 16 29 L 22 29 L 22 40.910156 L 16 40.910156 Z M 16 29 " clip-rule="nonzero"/></clipPath><clipPath id="b01d078e92"><path d="M 24 24 L 28.9375 24 L 28.9375 40.910156 L 24 40.910156 Z M 24 24 " clip-rule="nonzero"/></clipPath><clipPath id="8955481d3c"><path d="M 0.707031 11.195312 L 28.9375 11.195312 L 28.9375 31 L 0.707031 31 Z M 0.707031 11.195312 " clip-rule="nonzero"/></clipPath><clipPath id="00e5b43ca2"><path d="M 140 13 L 149.292969 13 L 149.292969 24 L 140 24 Z M 140 13 " clip-rule="nonzero"/></clipPath><clipPath id="f9bde513cd"><path d="M 36.804688 28.191406 L 148.984375 28.191406 L 148.984375 28.9375 L 36.804688 28.9375 Z M 36.804688 28.191406 " clip-rule="nonzero"/></clipPath><clipPath id="08f25cad5f"><path d="M 86 32 L 149.292969 32 L 149.292969 39 L 86 39 Z M 86 32 " clip-rule="nonzero"/></clipPath></defs><g clip-path="url(#2b3b9818f6)"><path fill="#0055ff" d="M 0.707031 33.027344 L 5.730469 33.027344 L 5.730469 41.226562 L 0.707031 41.226562 Z M 0.707031 33.027344 " fill-opacity="1" fill-rule="nonzero"/></g><g clip-path="url(#e85f5c5fba)"><path fill="#0055ff" d="M 8.496094 41.226562 L 8.496094 31.898438 L 13.5625 31.898438 L 13.5625 41.226562 Z M 8.496094 41.226562 " fill-opacity="1" fill-rule="nonzero"/></g><g clip-path="url(#87e5cca9f8)"><path fill="#0055ff" d="M 16.285156 29.128906 L 21.515625 29.128906 L 21.515625 41.226562 L 16.285156 41.226562 Z M 16.285156 29.128906 " fill-opacity="1" fill-rule="nonzero"/></g><g clip-path="url(#b01d078e92)"><path fill="#0055ff" d="M 24.28125 24.3125 L 29.199219 24.3125 L 29.199219 41.226562 L 24.28125 41.226562 Z M 24.28125 24.3125 " fill-opacity="1" fill-rule="nonzero"/></g><g clip-path="url(#8955481d3c)"><path fill="#0055ff" d="M 0.707031 30.214844 C 0.707031 30.214844 14.03125 28.417969 23.152344 16.320312 L 20.179688 14.371094 L 29.203125 11.195312 L 29.203125 20.707031 L 26.742188 18.574219 C 26.742188 18.574219 15.570312 31.199219 0.707031 30.214844 Z M 0.707031 30.214844 " fill-opacity="1" fill-rule="nonzero"/></g><g fill="#0055ff" fill-opacity="1"><g transform="translate(33.622557, 23.033258)"><g><path d="M 4.609375 -9.640625 C 6.035156 -9.640625 7.289062 -9.285156 8.375 -8.578125 L 7.453125 -6.6875 C 6.953125 -6.976562 6.414062 -7.210938 5.84375 -7.390625 C 5.28125 -7.578125 4.800781 -7.671875 4.40625 -7.671875 C 3.707031 -7.671875 3.359375 -7.441406 3.359375 -6.984375 C 3.359375 -6.679688 3.53125 -6.4375 3.875 -6.25 C 4.21875 -6.070312 4.632812 -5.914062 5.125 -5.78125 C 5.625 -5.65625 6.117188 -5.5 6.609375 -5.3125 C 7.109375 -5.125 7.53125 -4.820312 7.875 -4.40625 C 8.21875 -3.988281 8.390625 -3.460938 8.390625 -2.828125 C 8.390625 -1.910156 8.03125 -1.195312 7.3125 -0.6875 C 6.601562 -0.175781 5.695312 0.078125 4.59375 0.078125 C 3.800781 0.078125 3.019531 -0.0546875 2.25 -0.328125 C 1.476562 -0.597656 0.804688 -0.96875 0.234375 -1.4375 L 1.171875 -3.3125 C 1.648438 -2.894531 2.210938 -2.550781 2.859375 -2.28125 C 3.515625 -2.007812 4.097656 -1.875 4.609375 -1.875 C 5.003906 -1.875 5.3125 -1.941406 5.53125 -2.078125 C 5.75 -2.222656 5.859375 -2.429688 5.859375 -2.703125 C 5.859375 -2.972656 5.734375 -3.195312 5.484375 -3.375 C 5.234375 -3.550781 4.921875 -3.679688 4.546875 -3.765625 C 4.171875 -3.847656 3.765625 -3.960938 3.328125 -4.109375 C 2.898438 -4.253906 2.5 -4.410156 2.125 -4.578125 C 1.75 -4.753906 1.4375 -5.03125 1.1875 -5.40625 C 0.9375 -5.78125 0.8125 -6.234375 0.8125 -6.765625 C 0.8125 -7.640625 1.160156 -8.335938 1.859375 -8.859375 C 2.554688 -9.378906 3.472656 -9.640625 4.609375 -9.640625 Z M 4.609375 -9.640625 "/></g></g></g><g fill="#0055ff" fill-opacity="1"><g transform="translate(41.846668, 23.033258)"><g><path d="M 4.609375 -9.640625 C 6.035156 -9.640625 7.289062 -9.285156 8.375 -8.578125 L 7.453125 -6.6875 C 6.953125 -6.976562 6.414062 -7.210938 5.84375 -7.390625 C 5.28125 -7.578125 4.800781 -7.671875 4.40625 -7.671875 C 3.707031 -7.671875 3.359375 -7.441406 3.359375 -6.984375 C 3.359375 -6.679688 3.53125 -6.4375 3.875 -6.25 C 4.21875 -6.070312 4.632812 -5.914062 5.125 -5.78125 C 5.625 -5.65625 6.117188 -5.5 6.609375 -5.3125 C 7.109375 -5.125 7.53125 -4.820312 7.875 -4.40625 C 8.21875 -3.988281 8.390625 -3.460938 8.390625 -2.828125 C 8.390625 -1.910156 8.03125 -1.195312 7.3125 -0.6875 C 6.601562 -0.175781 5.695312 0.078125 4.59375 0.078125 C 3.800781 0.078125 3.019531 -0.0546875 2.25 -0.328125 C 1.476562 -0.597656 0.804688 -0.96875 0.234375 -1.4375 L 1.171875 -3.3125 C 1.648438 -2.894531 2.210938 -2.550781 2.859375 -2.28125 C 3.515625 -2.007812 4.097656 -1.875 4.609375 -1.875 C 5.003906 -1.875 5.3125 -1.941406 5.53125 -2.078125 C 5.75 -2.222656 5.859375 -2.429688 5.859375 -2.703125 C 5.859375 -2.972656 5.734375 -3.195312 5.484375 -3.375 C 5.234375 -3.550781 4.921875 -3.679688 4.546875 -3.765625 C 4.171875 -3.847656 3.765625 -3.960938 3.328125 -4.109375 C 2.898438 -4.253906 2.5 -4.410156 2.125 -4.578125 C 1.75 -4.753906 1.4375 -5.03125 1.1875 -5.40625 C 0.9375 -5.78125 0.8125 -6.234375 0.8125 -6.765625 C 0.8125 -7.640625 1.160156 -8.335938 1.859375 -8.859375 C 2.554688 -9.378906 3.472656 -9.640625 4.609375 -9.640625 Z M 4.609375 -9.640625 "/></g></g></g><g fill="#0055ff" fill-opacity="1"><g transform="translate(50.070779, 23.033258)"><g/></g></g><g fill="#0055ff" fill-opacity="1"><g transform="translate(52.685076, 23.033258)"><g><path d="M 8.234375 -7.578125 L 5.359375 -7.578125 L 5.359375 0 L 2.9375 0 L 2.9375 -7.578125 L 0.09375 -7.578125 L 0.09375 -9.546875 L 8.234375 -9.546875 Z M 8.234375 -7.578125 "/></g></g></g><g fill="#0055ff" fill-opacity="1"><g transform="translate(60.459847, 23.033258)"><g><path d="M 7.28125 -1.75 L 3.109375 -1.75 L 2.421875 0 L -0.0625 0 L 4.046875 -9.53125 L 6.53125 -9.53125 L 10.546875 0 L 7.96875 0 Z M 6.578125 -3.59375 L 5.21875 -7.125 L 3.828125 -3.59375 Z M 6.578125 -3.59375 "/></g></g></g><g fill="#0055ff" fill-opacity="1"><g transform="translate(70.399579, 23.033258)"><g><path d="M 6.484375 -4.984375 L 9.890625 0 L 7 0 L 4.9375 -3.03125 L 2.890625 0 L 0.0625 0 L 3.46875 -4.875 L 0.28125 -9.53125 L 3.109375 -9.53125 L 4.9375 -6.75 L 6.78125 -9.53125 L 9.625 -9.53125 Z M 6.484375 -4.984375 "/></g></g></g><g fill="#0055ff" fill-opacity="1"><g transform="translate(79.84913, 23.033258)"><g/></g></g><g fill="#0055ff" fill-opacity="1"><g transform="translate(82.463427, 23.033258)"><g><path d="M 11.421875 0 L 9.28125 0 L 9.265625 -6.1875 L 6.984375 -0.953125 L 5.40625 -0.953125 L 3.109375 -6.1875 L 3.109375 0 L 0.953125 0 L 0.953125 -9.546875 L 3.609375 -9.546875 L 6.1875 -3.859375 L 8.78125 -9.546875 L 11.421875 -9.546875 Z M 11.421875 0 "/></g></g></g><g fill="#0055ff" fill-opacity="1"><g transform="translate(94.309405, 23.033258)"><g><path d="M 8.40625 -7.625 L 3.375 -7.625 L 3.375 -5.734375 L 7.921875 -5.734375 L 7.921875 -3.828125 L 3.375 -3.828125 L 3.375 -1.90625 L 8.5625 -1.90625 L 8.5625 0 L 0.953125 0 L 0.953125 -9.53125 L 8.40625 -9.53125 Z M 8.40625 -7.625 "/></g></g></g><g fill="#0055ff" fill-opacity="1"><g transform="translate(102.941997, 23.033258)"><g><path d="M 9.75 0 L 7.609375 0 L 3.21875 -5.859375 L 3.21875 0 L 0.953125 0 L 0.953125 -9.53125 L 3.09375 -9.53125 L 7.484375 -3.640625 L 7.484375 -9.53125 L 9.75 -9.53125 Z M 9.75 0 "/></g></g></g><g fill="#0055ff" fill-opacity="1"><g transform="translate(113.099583, 23.033258)"><g><path d="M 8.234375 -7.578125 L 5.359375 -7.578125 L 5.359375 0 L 2.9375 0 L 2.9375 -7.578125 L 0.09375 -7.578125 L 0.09375 -9.546875 L 8.234375 -9.546875 Z M 8.234375 -7.578125 "/></g></g></g><g fill="#0055ff" fill-opacity="1"><g transform="translate(120.874351, 23.033258)"><g><path d="M 5.46875 -9.609375 C 6.945312 -9.609375 8.175781 -9.144531 9.15625 -8.21875 C 10.132812 -7.300781 10.625 -6.15625 10.625 -4.78125 C 10.625 -3.382812 10.128906 -2.21875 9.140625 -1.28125 C 8.160156 -0.351562 6.9375 0.109375 5.46875 0.109375 C 4 0.109375 2.773438 -0.351562 1.796875 -1.28125 C 0.816406 -2.21875 0.328125 -3.382812 0.328125 -4.78125 C 0.328125 -6.164062 0.816406 -7.316406 1.796875 -8.234375 C 2.773438 -9.148438 4 -9.609375 5.46875 -9.609375 Z M 5.5 -7.578125 C 4.75 -7.578125 4.109375 -7.304688 3.578125 -6.765625 C 3.054688 -6.222656 2.796875 -5.550781 2.796875 -4.75 C 2.796875 -3.957031 3.0625 -3.285156 3.59375 -2.734375 C 4.125 -2.191406 4.753906 -1.921875 5.484375 -1.921875 C 6.222656 -1.921875 6.847656 -2.191406 7.359375 -2.734375 C 7.878906 -3.285156 8.140625 -3.957031 8.140625 -4.75 C 8.140625 -5.550781 7.878906 -6.222656 7.359375 -6.765625 C 6.847656 -7.304688 6.226562 -7.578125 5.5 -7.578125 Z M 5.5 -7.578125 "/></g></g></g><g fill="#0055ff" fill-opacity="1"><g transform="translate(131.290637, 23.033258)"><g><path d="M 6.703125 0 L 5.28125 -2.6875 L 3.375 -2.6875 L 3.375 0 L 0.953125 0 L 0.953125 -9.53125 L 5.21875 -9.53125 C 6.476562 -9.53125 7.453125 -9.238281 8.140625 -8.65625 C 8.828125 -8.082031 9.171875 -7.265625 9.171875 -6.203125 C 9.171875 -4.734375 8.59375 -3.710938 7.4375 -3.140625 L 9.4375 0 Z M 3.375 -4.59375 L 5.21875 -4.59375 C 5.738281 -4.59375 6.144531 -4.722656 6.4375 -4.984375 C 6.726562 -5.242188 6.875 -5.625 6.875 -6.125 C 6.875 -6.613281 6.726562 -6.984375 6.4375 -7.234375 C 6.144531 -7.492188 5.738281 -7.625 5.21875 -7.625 L 3.375 -7.625 Z M 3.375 -4.59375 "/></g></g></g><g clip-path="url(#00e5b43ca2)"><g fill="#0055ff" fill-opacity="1"><g transform="translate(140.604038, 23.033258)"><g><path d="M 4.609375 -9.640625 C 6.035156 -9.640625 7.289062 -9.285156 8.375 -8.578125 L 7.453125 -6.6875 C 6.953125 -6.976562 6.414062 -7.210938 5.84375 -7.390625 C 5.28125 -7.578125 4.800781 -7.671875 4.40625 -7.671875 C 3.707031 -7.671875 3.359375 -7.441406 3.359375 -6.984375 C 3.359375 -6.679688 3.53125 -6.4375 3.875 -6.25 C 4.21875 -6.070312 4.632812 -5.914062 5.125 -5.78125 C 5.625 -5.65625 6.117188 -5.5 6.609375 -5.3125 C 7.109375 -5.125 7.53125 -4.820312 7.875 -4.40625 C 8.21875 -3.988281 8.390625 -3.460938 8.390625 -2.828125 C 8.390625 -1.910156 8.03125 -1.195312 7.3125 -0.6875 C 6.601562 -0.175781 5.695312 0.078125 4.59375 0.078125 C 3.800781 0.078125 3.019531 -0.0546875 2.25 -0.328125 C 1.476562 -0.597656 0.804688 -0.96875 0.234375 -1.4375 L 1.171875 -3.3125 C 1.648438 -2.894531 2.210938 -2.550781 2.859375 -2.28125 C 3.515625 -2.007812 4.097656 -1.875 4.609375 -1.875 C 5.003906 -1.875 5.3125 -1.941406 5.53125 -2.078125 C 5.75 -2.222656 5.859375 -2.429688 5.859375 -2.703125 C 5.859375 -2.972656 5.734375 -3.195312 5.484375 -3.375 C 5.234375 -3.550781 4.921875 -3.679688 4.546875 -3.765625 C 4.171875 -3.847656 3.765625 -3.960938 3.328125 -4.109375 C 2.898438 -4.253906 2.5 -4.410156 2.125 -4.578125 C 1.75 -4.753906 1.4375 -5.03125 1.1875 -5.40625 C 0.9375 -5.78125 0.8125 -6.234375 0.8125 -6.765625 C 0.8125 -7.640625 1.160156 -8.335938 1.859375 -8.859375 C 2.554688 -9.378906 3.472656 -9.640625 4.609375 -9.640625 Z M 4.609375 -9.640625 "/></g></g></g></g><g clip-path="url(#f9bde513cd)"><path fill="#0055ff" d="M 36.804688 28.917969 L 36.804688 28.675781 L 149.289062 28.675781 L 149.289062 28.917969 Z M 36.804688 28.917969 " fill-opacity="1" fill-rule="nonzero"/></g><g clip-path="url(#08f25cad5f)"><g fill="#0055ff" fill-opacity="1"><g transform="translate(85.812318, 38.162166)"><g><path d="M 0.703125 0 L 0.703125 -5.46875 L 2.90625 -5.46875 C 3.46875 -5.46875 3.890625 -5.335938 4.171875 -5.078125 C 4.460938 -4.816406 4.609375 -4.457031 4.609375 -4 C 4.609375 -3.664062 4.523438 -3.390625 4.359375 -3.171875 C 4.191406 -2.960938 3.941406 -2.804688 3.609375 -2.703125 L 3.609375 -2.609375 C 3.785156 -2.535156 3.925781 -2.425781 4.03125 -2.28125 C 4.132812 -2.132812 4.234375 -1.914062 4.328125 -1.625 L 4.875 0 L 3.765625 0 L 3.234375 -1.640625 C 3.171875 -1.796875 3.101562 -1.921875 3.03125 -2.015625 C 2.96875 -2.109375 2.882812 -2.175781 2.78125 -2.21875 C 2.675781 -2.257812 2.539062 -2.28125 2.375 -2.28125 L 1.796875 -2.28125 L 1.796875 0 Z M 2.78125 -3.125 C 3.300781 -3.125 3.5625 -3.367188 3.5625 -3.859375 C 3.5625 -4.359375 3.300781 -4.609375 2.78125 -4.609375 L 1.796875 -4.609375 L 1.796875 -3.125 Z M 2.78125 -3.125 "/></g></g><g transform="translate(90.926999, 38.162166)"><g><path d="M 4.078125 -1.828125 L 1.421875 -1.828125 C 1.453125 -1.472656 1.554688 -1.210938 1.734375 -1.046875 C 1.910156 -0.878906 2.144531 -0.796875 2.4375 -0.796875 C 2.675781 -0.796875 2.867188 -0.835938 3.015625 -0.921875 C 3.160156 -1.015625 3.28125 -1.148438 3.375 -1.328125 L 3.453125 -1.328125 L 4.140625 -0.890625 C 4.003906 -0.597656 3.800781 -0.363281 3.53125 -0.1875 C 3.257812 -0.0078125 2.894531 0.078125 2.4375 0.078125 C 2.019531 0.078125 1.65625 0 1.34375 -0.15625 C 1.03125 -0.320312 0.789062 -0.566406 0.625 -0.890625 C 0.457031 -1.210938 0.375 -1.601562 0.375 -2.0625 C 0.375 -2.53125 0.460938 -2.925781 0.640625 -3.25 C 0.816406 -3.570312 1.054688 -3.8125 1.359375 -3.96875 C 1.660156 -4.125 2 -4.203125 2.375 -4.203125 C 2.957031 -4.203125 3.398438 -4.046875 3.703125 -3.734375 C 4.015625 -3.429688 4.171875 -2.976562 4.171875 -2.375 C 4.171875 -2.15625 4.164062 -1.988281 4.15625 -1.875 Z M 3.1875 -2.5 C 3.175781 -2.8125 3.101562 -3.035156 2.96875 -3.171875 C 2.832031 -3.316406 2.632812 -3.390625 2.375 -3.390625 C 1.84375 -3.390625 1.535156 -3.09375 1.453125 -2.5 Z M 3.1875 -2.5 "/></g></g><g transform="translate(95.413102, 38.162166)"><g><path d="M 1.609375 0.078125 C 1.347656 0.078125 1.117188 0.03125 0.921875 -0.0625 C 0.722656 -0.164062 0.570312 -0.3125 0.46875 -0.5 C 0.363281 -0.6875 0.3125 -0.910156 0.3125 -1.171875 C 0.3125 -1.421875 0.363281 -1.625 0.46875 -1.78125 C 0.570312 -1.945312 0.734375 -2.082031 0.953125 -2.1875 C 1.171875 -2.300781 1.457031 -2.382812 1.8125 -2.4375 C 2.0625 -2.476562 2.25 -2.519531 2.375 -2.5625 C 2.507812 -2.613281 2.597656 -2.671875 2.640625 -2.734375 C 2.679688 -2.796875 2.703125 -2.867188 2.703125 -2.953125 C 2.703125 -3.085938 2.65625 -3.191406 2.5625 -3.265625 C 2.476562 -3.335938 2.328125 -3.375 2.109375 -3.375 C 1.878906 -3.375 1.660156 -3.320312 1.453125 -3.21875 C 1.242188 -3.113281 1.066406 -2.976562 0.921875 -2.8125 L 0.84375 -2.8125 L 0.40625 -3.46875 C 0.613281 -3.695312 0.867188 -3.875 1.171875 -4 C 1.472656 -4.132812 1.800781 -4.203125 2.15625 -4.203125 C 2.707031 -4.203125 3.101562 -4.082031 3.34375 -3.84375 C 3.59375 -3.613281 3.71875 -3.289062 3.71875 -2.875 L 3.71875 -1.078125 C 3.71875 -0.890625 3.796875 -0.796875 3.953125 -0.796875 C 4.015625 -0.796875 4.078125 -0.804688 4.140625 -0.828125 L 4.1875 -0.8125 L 4.265625 -0.09375 C 4.203125 -0.0625 4.117188 -0.03125 4.015625 0 C 3.921875 0.0195312 3.8125 0.03125 3.6875 0.03125 C 3.4375 0.03125 3.242188 -0.015625 3.109375 -0.109375 C 2.972656 -0.203125 2.875 -0.351562 2.8125 -0.5625 L 2.734375 -0.5625 C 2.535156 -0.132812 2.160156 0.078125 1.609375 0.078125 Z M 1.9375 -0.703125 C 2.175781 -0.703125 2.363281 -0.78125 2.5 -0.9375 C 2.644531 -1.09375 2.71875 -1.316406 2.71875 -1.609375 L 2.71875 -2.03125 L 2.65625 -2.046875 C 2.59375 -1.992188 2.507812 -1.945312 2.40625 -1.90625 C 2.3125 -1.875 2.164062 -1.84375 1.96875 -1.8125 C 1.75 -1.78125 1.585938 -1.71875 1.484375 -1.625 C 1.390625 -1.53125 1.34375 -1.398438 1.34375 -1.234375 C 1.34375 -1.054688 1.394531 -0.921875 1.5 -0.828125 C 1.601562 -0.742188 1.75 -0.703125 1.9375 -0.703125 Z M 1.9375 -0.703125 "/></g></g><g transform="translate(99.76451, 38.162166)"><g><path d="M 2.40625 0.078125 C 2.007812 0.078125 1.65625 -0.00390625 1.34375 -0.171875 C 1.039062 -0.335938 0.800781 -0.582031 0.625 -0.90625 C 0.457031 -1.226562 0.375 -1.613281 0.375 -2.0625 C 0.375 -2.507812 0.457031 -2.894531 0.625 -3.21875 C 0.800781 -3.539062 1.039062 -3.785156 1.34375 -3.953125 C 1.644531 -4.117188 1.992188 -4.203125 2.390625 -4.203125 C 3.253906 -4.203125 3.8125 -3.882812 4.0625 -3.25 L 3.34375 -2.75 L 3.265625 -2.75 C 3.179688 -2.945312 3.070312 -3.09375 2.9375 -3.1875 C 2.800781 -3.28125 2.617188 -3.328125 2.390625 -3.328125 C 2.085938 -3.328125 1.851562 -3.222656 1.6875 -3.015625 C 1.519531 -2.804688 1.4375 -2.488281 1.4375 -2.0625 C 1.4375 -1.632812 1.519531 -1.316406 1.6875 -1.109375 C 1.851562 -0.898438 2.09375 -0.796875 2.40625 -0.796875 C 2.625 -0.796875 2.8125 -0.851562 2.96875 -0.96875 C 3.125 -1.09375 3.238281 -1.269531 3.3125 -1.5 L 3.390625 -1.515625 L 4.125 -1.109375 C 4.019531 -0.753906 3.828125 -0.46875 3.546875 -0.25 C 3.265625 -0.03125 2.882812 0.078125 2.40625 0.078125 Z M 2.40625 0.078125 "/></g></g><g transform="translate(104.018638, 38.162166)"><g><path d="M 0.59375 0 L 0.59375 -5.78125 L 1.625 -5.78125 L 1.625 -3.578125 L 1.703125 -3.5625 C 1.847656 -3.769531 2.019531 -3.925781 2.21875 -4.03125 C 2.414062 -4.144531 2.65625 -4.203125 2.9375 -4.203125 C 3.84375 -4.203125 4.296875 -3.6875 4.296875 -2.65625 L 4.296875 0 L 3.265625 0 L 3.265625 -2.515625 C 3.265625 -2.804688 3.207031 -3.015625 3.09375 -3.140625 C 2.976562 -3.265625 2.804688 -3.328125 2.578125 -3.328125 C 2.285156 -3.328125 2.050781 -3.226562 1.875 -3.03125 C 1.707031 -2.84375 1.625 -2.546875 1.625 -2.140625 L 1.625 0 Z M 0.59375 0 "/></g></g><g transform="translate(108.852704, 38.162166)"><g/></g><g transform="translate(110.659867, 38.162166)"><g><path d="M 2.890625 0.078125 C 2.140625 0.078125 1.582031 -0.0976562 1.21875 -0.453125 C 0.851562 -0.816406 0.671875 -1.347656 0.671875 -2.046875 L 0.671875 -5.46875 L 1.734375 -5.46875 L 1.734375 -2.0625 C 1.734375 -1.65625 1.828125 -1.351562 2.015625 -1.15625 C 2.210938 -0.957031 2.503906 -0.859375 2.890625 -0.859375 C 3.671875 -0.859375 4.0625 -1.257812 4.0625 -2.0625 L 4.0625 -5.46875 L 5.125 -5.46875 L 5.125 -2.046875 C 5.125 -1.347656 4.941406 -0.816406 4.578125 -0.453125 C 4.210938 -0.0976562 3.648438 0.078125 2.890625 0.078125 Z M 2.890625 0.078125 "/></g></g><g transform="translate(116.459249, 38.162166)"><g><path d="M 1.921875 0.078125 C 1.640625 0.078125 1.378906 0.046875 1.140625 -0.015625 C 0.910156 -0.0859375 0.710938 -0.179688 0.546875 -0.296875 C 0.390625 -0.410156 0.269531 -0.539062 0.1875 -0.6875 L 0.765625 -1.3125 L 0.84375 -1.3125 C 0.976562 -1.125 1.140625 -0.984375 1.328125 -0.890625 C 1.515625 -0.804688 1.71875 -0.765625 1.9375 -0.765625 C 2.132812 -0.765625 2.285156 -0.796875 2.390625 -0.859375 C 2.492188 -0.929688 2.546875 -1.035156 2.546875 -1.171875 C 2.546875 -1.273438 2.507812 -1.363281 2.4375 -1.4375 C 2.363281 -1.507812 2.242188 -1.566406 2.078125 -1.609375 L 1.53125 -1.734375 C 1.125 -1.835938 0.828125 -1.988281 0.640625 -2.1875 C 0.453125 -2.382812 0.359375 -2.640625 0.359375 -2.953125 C 0.359375 -3.203125 0.421875 -3.421875 0.546875 -3.609375 C 0.679688 -3.804688 0.867188 -3.953125 1.109375 -4.046875 C 1.347656 -4.148438 1.625 -4.203125 1.9375 -4.203125 C 2.3125 -4.203125 2.617188 -4.144531 2.859375 -4.03125 C 3.097656 -3.925781 3.289062 -3.785156 3.4375 -3.609375 L 2.875 -3.015625 L 2.796875 -3.015625 C 2.679688 -3.140625 2.550781 -3.234375 2.40625 -3.296875 C 2.269531 -3.359375 2.113281 -3.390625 1.9375 -3.390625 C 1.53125 -3.390625 1.328125 -3.257812 1.328125 -3 C 1.328125 -2.894531 1.363281 -2.804688 1.4375 -2.734375 C 1.507812 -2.671875 1.644531 -2.617188 1.84375 -2.578125 L 2.34375 -2.46875 C 2.757812 -2.375 3.066406 -2.226562 3.265625 -2.03125 C 3.460938 -1.832031 3.5625 -1.566406 3.5625 -1.234375 C 3.5625 -0.972656 3.492188 -0.742188 3.359375 -0.546875 C 3.234375 -0.347656 3.046875 -0.191406 2.796875 -0.078125 C 2.554688 0.0234375 2.265625 0.078125 1.921875 0.078125 Z M 1.921875 0.078125 "/></g></g><g transform="translate(120.264393, 38.162166)"><g/></g><g transform="translate(122.071555, 38.162166)"><g><path d="M 2.234375 0.078125 C 1.835938 0.078125 1.488281 0.0078125 1.1875 -0.125 C 0.894531 -0.257812 0.664062 -0.453125 0.5 -0.703125 C 0.34375 -0.953125 0.265625 -1.242188 0.265625 -1.578125 C 0.265625 -1.929688 0.351562 -2.226562 0.53125 -2.46875 C 0.71875 -2.707031 0.988281 -2.90625 1.34375 -3.0625 L 1.359375 -3.140625 C 1.191406 -3.335938 1.070312 -3.519531 1 -3.6875 C 0.925781 -3.863281 0.890625 -4.054688 0.890625 -4.265625 C 0.890625 -4.515625 0.945312 -4.734375 1.0625 -4.921875 C 1.1875 -5.117188 1.363281 -5.269531 1.59375 -5.375 C 1.820312 -5.488281 2.09375 -5.546875 2.40625 -5.546875 C 2.707031 -5.546875 2.960938 -5.492188 3.171875 -5.390625 C 3.390625 -5.296875 3.550781 -5.160156 3.65625 -4.984375 C 3.769531 -4.804688 3.828125 -4.597656 3.828125 -4.359375 C 3.828125 -4.054688 3.734375 -3.789062 3.546875 -3.5625 C 3.367188 -3.332031 3.082031 -3.140625 2.6875 -2.984375 L 2.6875 -2.90625 L 3.6875 -1.578125 C 3.75 -1.703125 3.789062 -1.847656 3.8125 -2.015625 C 3.832031 -2.179688 3.84375 -2.375 3.84375 -2.59375 L 3.84375 -2.78125 L 4.71875 -2.78125 C 4.71875 -2.007812 4.566406 -1.390625 4.265625 -0.921875 C 4.328125 -0.867188 4.378906 -0.832031 4.421875 -0.8125 C 4.472656 -0.789062 4.523438 -0.78125 4.578125 -0.78125 C 4.628906 -0.78125 4.671875 -0.78125 4.703125 -0.78125 C 4.742188 -0.789062 4.78125 -0.800781 4.8125 -0.8125 L 4.875 -0.796875 L 5 -0.046875 C 4.957031 -0.015625 4.890625 0.00390625 4.796875 0.015625 C 4.710938 0.0351562 4.617188 0.046875 4.515625 0.046875 C 4.328125 0.046875 4.164062 0.0195312 4.03125 -0.03125 C 3.894531 -0.09375 3.765625 -0.1875 3.640625 -0.3125 L 3.5625 -0.3125 C 3.25 -0.0507812 2.804688 0.078125 2.234375 0.078125 Z M 2.234375 -3.5 C 2.460938 -3.613281 2.628906 -3.726562 2.734375 -3.84375 C 2.835938 -3.96875 2.890625 -4.117188 2.890625 -4.296875 C 2.890625 -4.453125 2.84375 -4.570312 2.75 -4.65625 C 2.664062 -4.738281 2.546875 -4.78125 2.390625 -4.78125 C 2.242188 -4.78125 2.125 -4.734375 2.03125 -4.640625 C 1.9375 -4.554688 1.890625 -4.429688 1.890625 -4.265625 C 1.890625 -4.148438 1.910156 -4.039062 1.953125 -3.9375 C 2.003906 -3.832031 2.097656 -3.6875 2.234375 -3.5 Z M 2.359375 -0.8125 C 2.597656 -0.8125 2.804688 -0.859375 2.984375 -0.953125 L 1.765625 -2.5 C 1.617188 -2.40625 1.507812 -2.289062 1.4375 -2.15625 C 1.375 -2.03125 1.34375 -1.878906 1.34375 -1.703125 C 1.34375 -1.523438 1.382812 -1.367188 1.46875 -1.234375 C 1.550781 -1.097656 1.671875 -0.992188 1.828125 -0.921875 C 1.984375 -0.847656 2.160156 -0.8125 2.359375 -0.8125 Z M 2.359375 -0.8125 "/></g></g><g transform="translate(127.182495, 38.162166)"><g/></g><g transform="translate(128.989658, 38.162166)"><g><path d="M 0.703125 0 L 0.703125 -5.46875 L 2.90625 -5.46875 C 3.46875 -5.46875 3.890625 -5.335938 4.171875 -5.078125 C 4.460938 -4.816406 4.609375 -4.457031 4.609375 -4 C 4.609375 -3.664062 4.523438 -3.390625 4.359375 -3.171875 C 4.191406 -2.960938 3.941406 -2.804688 3.609375 -2.703125 L 3.609375 -2.609375 C 3.785156 -2.535156 3.925781 -2.425781 4.03125 -2.28125 C 4.132812 -2.132812 4.234375 -1.914062 4.328125 -1.625 L 4.875 0 L 3.765625 0 L 3.234375 -1.640625 C 3.171875 -1.796875 3.101562 -1.921875 3.03125 -2.015625 C 2.96875 -2.109375 2.882812 -2.175781 2.78125 -2.21875 C 2.675781 -2.257812 2.539062 -2.28125 2.375 -2.28125 L 1.796875 -2.28125 L 1.796875 0 Z M 2.78125 -3.125 C 3.300781 -3.125 3.5625 -3.367188 3.5625 -3.859375 C 3.5625 -4.359375 3.300781 -4.609375 2.78125 -4.609375 L 1.796875 -4.609375 L 1.796875 -3.125 Z M 2.78125 -3.125 "/></g></g><g transform="translate(134.104339, 38.162166)"><g><path d="M 4.078125 -1.828125 L 1.421875 -1.828125 C 1.453125 -1.472656 1.554688 -1.210938 1.734375 -1.046875 C 1.910156 -0.878906 2.144531 -0.796875 2.4375 -0.796875 C 2.675781 -0.796875 2.867188 -0.835938 3.015625 -0.921875 C 3.160156 -1.015625 3.28125 -1.148438 3.375 -1.328125 L 3.453125 -1.328125 L 4.140625 -0.890625 C 4.003906 -0.597656 3.800781 -0.363281 3.53125 -0.1875 C 3.257812 -0.0078125 2.894531 0.078125 2.4375 0.078125 C 2.019531 0.078125 1.65625 0 1.34375 -0.15625 C 1.03125 -0.320312 0.789062 -0.566406 0.625 -0.890625 C 0.457031 -1.210938 0.375 -1.601562 0.375 -2.0625 C 0.375 -2.53125 0.460938 -2.925781 0.640625 -3.25 C 0.816406 -3.570312 1.054688 -3.8125 1.359375 -3.96875 C 1.660156 -4.125 2 -4.203125 2.375 -4.203125 C 2.957031 -4.203125 3.398438 -4.046875 3.703125 -3.734375 C 4.015625 -3.429688 4.171875 -2.976562 4.171875 -2.375 C 4.171875 -2.15625 4.164062 -1.988281 4.15625 -1.875 Z M 3.1875 -2.5 C 3.175781 -2.8125 3.101562 -3.035156 2.96875 -3.171875 C 2.832031 -3.316406 2.632812 -3.390625 2.375 -3.390625 C 1.84375 -3.390625 1.535156 -3.09375 1.453125 -2.5 Z M 3.1875 -2.5 "/></g></g><g transform="translate(138.590442, 38.162166)"><g><path d="M 1.71875 0.078125 C 1.34375 0.078125 1.054688 -0.0195312 0.859375 -0.21875 C 0.660156 -0.414062 0.5625 -0.722656 0.5625 -1.140625 L 0.5625 -5.78125 L 1.609375 -5.78125 L 1.609375 -1.171875 C 1.609375 -0.921875 1.710938 -0.796875 1.921875 -0.796875 C 1.972656 -0.796875 2.035156 -0.804688 2.109375 -0.828125 L 2.15625 -0.8125 L 2.25 -0.015625 C 2.195312 0.015625 2.125 0.0351562 2.03125 0.046875 C 1.9375 0.0664062 1.832031 0.078125 1.71875 0.078125 Z M 1.71875 0.078125 "/></g></g><g transform="translate(140.962577, 38.162166)"><g><path d="M 1.609375 0.078125 C 1.347656 0.078125 1.117188 0.03125 0.921875 -0.0625 C 0.722656 -0.164062 0.570312 -0.3125 0.46875 -0.5 C 0.363281 -0.6875 0.3125 -0.910156 0.3125 -1.171875 C 0.3125 -1.421875 0.363281 -1.625 0.46875 -1.78125 C 0.570312 -1.945312 0.734375 -2.082031 0.953125 -2.1875 C 1.171875 -2.300781 1.457031 -2.382812 1.8125 -2.4375 C 2.0625 -2.476562 2.25 -2.519531 2.375 -2.5625 C 2.507812 -2.613281 2.597656 -2.671875 2.640625 -2.734375 C 2.679688 -2.796875 2.703125 -2.867188 2.703125 -2.953125 C 2.703125 -3.085938 2.65625 -3.191406 2.5625 -3.265625 C 2.476562 -3.335938 2.328125 -3.375 2.109375 -3.375 C 1.878906 -3.375 1.660156 -3.320312 1.453125 -3.21875 C 1.242188 -3.113281 1.066406 -2.976562 0.921875 -2.8125 L 0.84375 -2.8125 L 0.40625 -3.46875 C 0.613281 -3.695312 0.867188 -3.875 1.171875 -4 C 1.472656 -4.132812 1.800781 -4.203125 2.15625 -4.203125 C 2.707031 -4.203125 3.101562 -4.082031 3.34375 -3.84375 C 3.59375 -3.613281 3.71875 -3.289062 3.71875 -2.875 L 3.71875 -1.078125 C 3.71875 -0.890625 3.796875 -0.796875 3.953125 -0.796875 C 4.015625 -0.796875 4.078125 -0.804688 4.140625 -0.828125 L 4.1875 -0.8125 L 4.265625 -0.09375 C 4.203125 -0.0625 4.117188 -0.03125 4.015625 0 C 3.921875 0.0195312 3.8125 0.03125 3.6875 0.03125 C 3.4375 0.03125 3.242188 -0.015625 3.109375 -0.109375 C 2.972656 -0.203125 2.875 -0.351562 2.8125 -0.5625 L 2.734375 -0.5625 C 2.535156 -0.132812 2.160156 0.078125 1.609375 0.078125 Z M 1.9375 -0.703125 C 2.175781 -0.703125 2.363281 -0.78125 2.5 -0.9375 C 2.644531 -1.09375 2.71875 -1.316406 2.71875 -1.609375 L 2.71875 -2.03125 L 2.65625 -2.046875 C 2.59375 -1.992188 2.507812 -1.945312 2.40625 -1.90625 C 2.3125 -1.875 2.164062 -1.84375 1.96875 -1.8125 C 1.75 -1.78125 1.585938 -1.71875 1.484375 -1.625 C 1.390625 -1.53125 1.34375 -1.398438 1.34375 -1.234375 C 1.34375 -1.054688 1.394531 -0.921875 1.5 -0.828125 C 1.601562 -0.742188 1.75 -0.703125 1.9375 -0.703125 Z M 1.9375 -0.703125 "/></g></g><g transform="translate(145.313985, 38.162166)"><g><path d="M 1.15625 0 L 0.078125 0 L 1.25 -2.140625 L 0.140625 -4.125 L 1.234375 -4.125 L 1.953125 -2.765625 L 2.046875 -2.765625 L 2.765625 -4.125 L 3.828125 -4.125 L 2.75 -2.140625 L 3.890625 0 L 2.796875 0 L 2.015625 -1.5 L 1.921875 -1.5 Z M 1.15625 0 "/></g></g></g></g></svg>